HIERARCHY
ROOT joint_Root
{
	OFFSET 0.0 0.0 0.0
	CHANNELS 6 Xposition Yposition Zposition Zrotation Xrotation Yrotation 
	JOINT Hips
	{
		OFFSET 4.5925 91.4895 -427.239
		CHANNELS 6 Xposition Yposition Zposition Zrotation Xrotation Yrotation 
		JOINT Spine
		{
			OFFSET 15.7357 0.0 0.0
			CHANNELS 6 Xposition Yposition Zposition Zrotation Xrotation Yrotation 
			JOINT Chest
			{
				OFFSET 8.98455 -0.406207 0.0
				CHANNELS 6 Xposition Yposition Zposition Zrotation Xrotation Yrotation 
				JOINT Neck
				{
					OFFSET 16.3773 0.0 0.0
					CHANNELS 6 Xposition Yposition Zposition Zrotation Xrotation Yrotation 
					JOINT Head
					{
						OFFSET 6.45672 0.0 0.0
						CHANNELS 6 Xposition Yposition Zposition Zrotation Xrotation Yrotation 
						End Site
						{
							OFFSET 0.0 0.0 0.0
						}
					}
				}
				JOINT Shoulder_L
				{
					OFFSET 12.9942 -0.242716 4.98039
					CHANNELS 6 Xposition Yposition Zposition Zrotation Xrotation Yrotation 
					JOINT UpperArm_L
					{
						OFFSET 5.34809 0.0 0.0
						CHANNELS 6 Xposition Yposition Zposition Zrotation Xrotation Yrotation 
						JOINT LowerArm_L
						{
							OFFSET 24.3286 1.87007e-05 0.0
							CHANNELS 6 Xposition Yposition Zposition Zrotation Xrotation Yrotation 
							JOINT Hand_L
							{
								OFFSET 22.2916 0.0 0.0
								CHANNELS 6 Xposition Yposition Zposition Zrotation Xrotation Yrotation 
								End Site
								{
									OFFSET 0.0 0.0 0.0
								}
							}
						}
					}
				}
				JOINT Shoulder_R
				{
					OFFSET 12.9945 -0.242716 -4.98039
					CHANNELS 6 Xposition Yposition Zposition Zrotation Xrotation Yrotation 
					JOINT UpperArm_R
					{
						OFFSET -5.34813 0.0 0.0
						CHANNELS 6 Xposition Yposition Zposition Zrotation Xrotation Yrotation 
						JOINT LowerArm_R
						{
							OFFSET -24.3289 0.000322201 0.0
							CHANNELS 6 Xposition Yposition Zposition Zrotation Xrotation Yrotation 
							JOINT Hand_R
							{
								OFFSET -22.2915 -0.000108084 0.0
								CHANNELS 6 Xposition Yposition Zposition Zrotation Xrotation Yrotation 
								End Site
								{
									OFFSET 0.0 0.0 0.0
								}
							}
						}
					}
				}
			}
		}
		JOINT UpperLeg_L
		{
			OFFSET -2.19248 -6.46944 0.0
			CHANNELS 6 Xposition Yposition Zposition Zrotation Xrotation Yrotation 
			JOINT LowerLeg_L
			{
				OFFSET 39.0811 0.0 -1.23785e-05
				CHANNELS 6 Xposition Yposition Zposition Zrotation Xrotation Yrotation 
				JOINT Foot_L
				{
					OFFSET 40.9854 0.0 -1.26872e-05
					CHANNELS 6 Xposition Yposition Zposition Zrotation Xrotation Yrotation 
					JOINT Toes_L
					{
						OFFSET 11.7543 0.0 0.0
						CHANNELS 6 Xposition Yposition Zposition Zrotation Xrotation Yrotation 
						End Site
						{
							OFFSET 0.0 0.0 0.0
						}
					}
				}
			}
		}
		JOINT UpperLeg_R
		{
			OFFSET -2.19251 6.46944 0.0
			CHANNELS 6 Xposition Yposition Zposition Zrotation Xrotation Yrotation 
			JOINT LowerLeg_R
			{
				OFFSET -39.0811 -0.00228153 -0.0401928
				CHANNELS 6 Xposition Yposition Zposition Zrotation Xrotation Yrotation 
				JOINT Foot_R
				{
					OFFSET -40.9854 0.0 0.0
					CHANNELS 6 Xposition Yposition Zposition Zrotation Xrotation Yrotation 
					JOINT Toes_R
					{
						OFFSET -11.7543 0.0 0.0
						CHANNELS 6 Xposition Yposition Zposition Zrotation Xrotation Yrotation 
						End Site
						{
							OFFSET 0.0 0.0 0.0
						}
					}
				}
			}
		}
	}
}
MOTION
Frames:	7
Frame Time:	0.0333333
0.000000 0.000000 0.000000 0.000000 0.000000 -0.000000 -0.617194 90.424700 -5.178960 89.186200 -3.111730 12.645500 15.735700 0.000005 -0.000001 89.048800 76.096300 -89.273100 8.984550 -0.406207 -0.000000 20.037000 -0.475139 -0.366053 16.377300 -0.000001 -0.000001 4.320740 -3.958700 2.171820 6.456720 -0.000001 -0.000000 -8.383450 -2.794660 0.056805 12.994200 -0.242716 4.980390 -91.223000 6.821700 -79.811200 5.348090 -0.000007 -0.000001 -54.415800 35.644300 -31.386600 24.328600 0.000019 0.000005 9.769440 21.811000 -24.863700 22.291600 -0.000001 0.000005 9.568450 5.201560 2.680050 12.994500 -0.242716 -4.980390 89.201000 10.336700 -85.555900 -5.348130 -0.000001 -0.000004 -55.362400 35.819800 -26.274600 -24.328900 0.000322 -0.000009 1.280830 3.246360 -21.561200 -22.291500 -0.000108 -0.000004 16.616800 5.415940 -3.462740 -2.192480 -6.469440 -0.000000 -174.319000 -10.548400 -2.478040 39.081100 -0.000007 -0.000012 -0.177252 0.261794 34.101000 40.985400 -0.000006 -0.000013 0.461842 5.856310 -68.847600 11.754300 -0.000000 0.000003 -0.000058 -0.000641 -16.602400 -2.192510 6.469440 -0.000001 174.783000 19.101100 178.780000 -39.081100 -0.002282 -0.040193 -0.178180 0.276415 33.286300 -40.985400 0.000008 0.000006 3.712240 12.707900 -69.183200 -11.754300 -0.000006 -0.000006 -0.003891 -0.050305 -18.619300
0.000000 0.000000 0.000000 0.000000 0.000000 -0.000000 -0.626860 90.420500 -5.196770 89.186000 -3.078480 12.654100 15.735700 0.000005 -0.000001 89.073300 76.088400 -89.294000 8.984550 -0.406207 -0.000000 20.053200 -0.463435 -0.360842 16.377300 -0.000001 -0.000001 4.427610 -4.012690 2.242400 6.456720 -0.000001 -0.000000 -8.611160 -2.839260 0.023533 12.994200 -0.242716 4.980390 -91.215300 6.751260 -79.770900 5.348090 -0.000007 -0.000001 -55.088900 34.748000 -30.779800 24.328600 0.000019 0.000005 10.391700 21.700400 -26.379200 22.291600 -0.000001 0.000005 9.621020 5.206150 2.564670 12.994500 -0.242716 -4.980390 89.192900 10.304100 -85.497100 -5.348130 -0.000001 -0.000004 -55.392400 35.803100 -26.269600 -24.328900 0.000322 -0.000009 1.294530 3.275900 -21.592400 -22.291500 -0.000108 -0.000004 16.579700 5.415180 -3.437210 -2.192480 -6.469440 -0.000000 -174.321000 -10.565200 -2.498650 39.081100 -0.000007 -0.000012 -0.171212 0.252634 34.126100 40.985400 -0.000006 -0.000013 0.470969 5.870980 -68.844200 11.754300 -0.000000 0.000003 -0.000056 -0.000629 -16.601900 -2.192510 6.469440 -0.000001 174.795000 19.087100 178.769000 -39.081100 -0.002282 -0.040193 -0.178019 0.275932 33.308800 -40.985400 0.000008 0.000006 3.712520 12.673300 -69.188400 -11.754300 -0.000006 -0.000006 -0.003832 -0.049682 -18.594000
0.000000 0.000000 0.000000 0.000000 0.000000 -0.000000 -0.637580 90.420800 -5.228510 89.190000 -3.024370 12.627600 15.735700 0.000005 -0.000001 89.033000 76.089600 -89.248000 8.984550 -0.406207 -0.000000 20.050300 -0.481905 -0.346161 16.377300 -0.000001 -0.000001 4.537460 -4.059930 2.301020 6.456720 -0.000001 -0.000000 -8.837200 -2.891800 -0.018377 12.994200 -0.242716 4.980390 -91.214500 6.705130 -79.708800 5.348090 -0.000007 -0.000001 -55.782200 33.696600 -30.165900 24.328600 0.000019 0.000005 11.021400 21.364500 -28.130700 22.291600 -0.000001 0.000005 9.853630 5.208690 2.500680 12.994500 -0.242716 -4.980390 89.189400 10.269700 -85.462600 -5.348130 -0.000001 -0.000004 -55.370800 35.815800 -26.313400 -24.328900 0.000322 -0.000009 1.290320 3.269580 -21.566300 -22.291500 -0.000108 -0.000004 16.587700 5.416980 -3.497480 -2.192480 -6.469440 -0.000000 -174.331000 -10.533000 -2.557060 39.081100 -0.000007 -0.000012 -0.171302 0.252759 34.127000 40.985400 -0.000006 -0.000013 0.475635 5.917300 -68.818100 11.754300 -0.000000 0.000003 -0.000057 -0.000638 -16.602300 -2.192510 6.469440 -0.000001 174.807000 19.141700 178.717000 -39.081100 -0.002282 -0.040193 -0.177890 0.275642 33.317800 -40.985400 0.000008 0.000006 3.722390 12.655500 -69.172900 -11.754300 -0.000006 -0.000006 -0.003809 -0.049439 -18.584100
0.000000 0.000000 0.000000 0.000000 0.000000 -0.000000 -0.648297 90.424600 -5.255300 89.206400 -2.982800 12.635400 15.735700 0.000005 -0.000001 89.057000 76.075400 -89.268600 8.984550 -0.406207 -0.000000 20.079000 -0.470624 -0.341190 16.377300 -0.000001 -0.000001 4.691210 -4.104800 2.401950 6.456720 -0.000001 -0.000000 -9.197810 -2.936820 -0.085658 12.994200 -0.242716 4.980390 -91.205800 6.637300 -79.679200 5.348090 -0.000007 -0.000001 -56.285700 32.718400 -29.734000 24.328600 0.000019 0.000005 11.502300 20.666500 -29.967400 22.291600 -0.000001 0.000005 10.157500 5.210710 2.449270 12.994500 -0.242716 -4.980390 89.184000 10.222300 -85.411800 -5.348130 -0.000001 -0.000004 -55.315200 35.821500 -26.366200 -24.328900 0.000322 -0.000009 1.280220 3.241090 -21.583700 -22.291500 -0.000108 -0.000004 16.548900 5.416210 -3.471760 -2.192480 -6.469440 -0.000000 -174.341000 -10.525300 -2.564760 39.081100 -0.000007 -0.000012 -0.173171 0.255754 34.102200 40.985400 -0.000006 -0.000013 0.472502 5.939640 -68.779400 11.754300 -0.000000 0.000003 -0.000061 -0.000669 -16.603500 -2.192510 6.469440 -0.000001 174.804000 19.143200 178.709000 -39.081100 -0.002282 -0.040193 -0.176006 0.272828 33.312700 -40.985400 0.000008 0.000006 3.722770 12.622700 -69.155700 -11.754300 -0.000006 -0.000006 -0.003743 -0.048736 -18.555400
0.000000 0.000000 0.000000 0.000000 0.000000 -0.000000 -0.657817 90.425500 -5.291340 89.208800 -2.966920 12.624000 15.735700 0.000005 -0.000001 89.055400 76.060900 -89.263600 8.984550 -0.406207 -0.000000 20.108100 -0.471535 -0.334119 16.377300 -0.000001 -0.000001 4.857440 -4.148340 2.511500 6.456720 -0.000001 -0.000000 -9.649920 -2.975590 -0.139976 12.994200 -0.242716 4.980390 -91.202500 6.564270 -79.595400 5.348090 -0.000007 -0.000001 -56.861400 31.509700 -29.317200 24.328600 0.000019 0.000005 12.339300 20.320500 -32.207200 22.291600 -0.000001 0.000005 10.302600 5.206530 2.554710 12.994500 -0.242716 -4.980390 89.186200 10.149900 -85.391800 -5.348130 -0.000001 -0.000004 -55.328900 35.773900 -26.434100 -24.328900 0.000322 -0.000009 1.257360 3.183140 -21.584000 -22.291500 -0.000108 -0.000004 16.539800 5.414930 -3.428770 -2.192480 -6.469440 -0.000000 -174.350000 -10.490600 -2.610100 39.081100 -0.000007 -0.000012 -0.174529 0.257769 34.101300 40.985400 -0.000006 -0.000013 0.463167 5.934630 -68.746800 11.754300 -0.000000 0.000003 -0.000051 -0.000580 -16.600100 -2.192510 6.469440 -0.000001 174.816000 19.152800 178.671000 -39.081100 -0.002282 -0.040193 -0.177051 0.274381 33.316300 -40.985400 0.000008 0.000006 3.727510 12.613000 -69.135400 -11.754300 -0.000006 -0.000006 -0.003870 -0.050083 -18.610300
0.000000 0.000000 0.000000 0.000000 0.000000 -0.000000 -0.665358 90.426300 -5.339150 89.214600 -2.930330 12.629300 15.735700 0.000005 -0.000001 89.035200 76.039200 -89.246200 8.984550 -0.406207 -0.000000 20.151200 -0.482180 -0.337780 16.377300 -0.000001 -0.000001 5.000670 -4.189690 2.609100 6.456720 -0.000001 -0.000000 -10.098400 -3.017220 -0.154440 12.994200 -0.242716 4.980390 -91.191100 6.424030 -79.473300 5.348090 -0.000007 -0.000001 -57.603000 30.083200 -28.956700 24.328600 0.000019 0.000005 13.406900 20.195200 -34.623500 22.291600 -0.000001 0.000005 10.578100 5.198990 2.744170 12.994500 -0.242716 -4.980390 89.182100 10.095700 -85.343900 -5.348130 -0.000001 -0.000004 -55.301000 35.741200 -26.535000 -24.328900 0.000322 -0.000009 1.271370 3.225800 -21.540500 -22.291500 -0.000108 -0.000004 16.460900 5.416780 -3.490930 -2.192480 -6.469440 -0.000000 -174.367000 -10.462300 -2.649740 39.081100 -0.000007 -0.000012 -0.171408 0.253147 34.102600 40.985400 -0.000006 -0.000013 0.458414 5.921180 -68.706400 11.754300 -0.000000 0.000003 -0.000058 -0.000642 -16.602400 -2.192510 6.469440 -0.000001 174.809000 19.249900 178.645000 -39.081100 -0.002282 -0.040193 -0.174114 0.269822 33.325200 -40.985400 0.000008 0.000006 3.759170 12.655900 -69.114600 -11.754300 -0.000006 -0.000006 -0.003831 -0.049669 -18.593400
0.000000 0.000000 0.000000 0.000000 0.000000 -0.000000 -0.678252 90.429000 -5.392280 89.238900 -2.901110 12.606700 15.735700 0.000005 -0.000001 89.059500 76.026200 -89.276200 8.984550 -0.406207 -0.000000 20.177400 -0.471659 -0.350928 16.377300 -0.000001 -0.000001 5.237000 -4.238200 2.726350 6.456720 -0.000001 -0.000000 -10.651600 -3.058670 -0.194924 12.994200 -0.242716 4.980390 -91.170200 6.281850 -79.425700 5.348090 -0.000007 -0.000001 -58.407200 28.407800 -28.676800 24.328600 0.000019 0.000005 14.669700 20.205900 -37.158700 22.291600 -0.000001 0.000005 10.689500 5.193970 2.870030 12.994500 -0.242716 -4.980390 89.172400 10.075100 -85.279400 -5.348130 -0.000001 -0.000004 -55.235700 35.705500 -26.636100 -24.328900 0.000322 -0.000009 1.282880 3.255970 -21.534800 -22.291500 -0.000108 -0.000004 16.468600 5.417670 -3.520670 -2.192480 -6.469440 -0.000000 -174.387000 -10.483500 -2.712400 39.081100 -0.000007 -0.000012 -0.170723 0.252311 34.084100 40.985400 -0.000006 -0.000013 0.459614 5.960050 -68.648600 11.754300 -0.000000 0.000003 -0.000051 -0.000581 -16.600100 -2.192510 6.469440 -0.000001 174.810000 19.273300 178.577000 -39.081100 -0.002282 -0.040193 -0.175665 0.272067 33.336200 -40.985400 0.000008 0.000006 3.769260 12.636700 -69.085800 -11.754300 -0.000006 -0.000006 -0.003865 -0.050027 -18.608000
